<svg xmlns="http://www.w3.org/2000/svg" xmlns:xlink="http://www.w3.org/1999/xlink" width="500" zoomAndPan="magnify" viewBox="0 0 375 374.999991" height="500" preserveAspectRatio="xMidYMid meet" version="1.0"><defs><g/><clipPath id="d493906686"><path d="M 0.28125 13 L 30 13 L 30 45 L 0.28125 45 Z M 0.28125 13 " clip-rule="nonzero"/></clipPath><clipPath id="97c01863ad"><rect x="0" width="246" y="0" height="58"/></clipPath></defs><g transform="matrix(1, 0, 0, 1, 65, 158)"><g clip-path="url(#97c01863ad)"><g clip-path="url(#d493906686)"><g fill="#000000" fill-opacity="1"><g transform="translate(0.570295, 44.348863)"><g><path d="M 0.171875 0 L 12.84375 -30.484375 L 16.890625 -30.484375 L 29.390625 0 L 25.734375 0 L 21.90625 -9.578125 L 7.53125 -9.578125 L 3.65625 0 Z M 8.703125 -12.453125 L 20.734375 -12.453125 L 14.765625 -27.34375 Z M 8.703125 -12.453125 "/></g></g></g></g><g fill="#000000" fill-opacity="1"><g transform="translate(28.085735, 44.348863)"><g><path d="M 27.90625 -12.890625 C 27.90625 -8.828125 26.765625 -5.582031 24.484375 -3.15625 C 22.210938 -0.726562 19.160156 0.484375 15.328125 0.484375 C 11.460938 0.484375 8.398438 -0.71875 6.140625 -3.125 C 3.878906 -5.539062 2.75 -8.796875 2.75 -12.890625 L 2.75 -30.484375 L 6.09375 -30.484375 L 6.09375 -12.890625 C 6.09375 -9.785156 6.929688 -7.296875 8.609375 -5.421875 C 10.296875 -3.546875 12.535156 -2.609375 15.328125 -2.609375 C 18.117188 -2.609375 20.351562 -3.546875 22.03125 -5.421875 C 23.71875 -7.296875 24.5625 -9.785156 24.5625 -12.890625 L 24.5625 -30.484375 L 27.90625 -30.484375 Z M 27.90625 -12.890625 "/></g></g></g><g fill="#000000" fill-opacity="1"><g transform="translate(57.822007, 44.348863)"><g><path d="M 3.359375 0 L 3.359375 -30.484375 L 16.421875 -30.484375 C 19.378906 -30.484375 21.769531 -29.675781 23.59375 -28.0625 C 25.425781 -26.457031 26.34375 -24.347656 26.34375 -21.734375 C 26.34375 -19.722656 25.753906 -17.992188 24.578125 -16.546875 C 23.398438 -15.097656 21.828125 -14.097656 19.859375 -13.546875 L 26.6875 0 L 23 0 L 16.453125 -13.109375 L 6.703125 -13.109375 L 6.703125 0 Z M 16.203125 -27.484375 L 6.703125 -27.484375 L 6.703125 -15.9375 L 16.203125 -15.9375 C 18.234375 -15.9375 19.875 -16.460938 21.125 -17.515625 C 22.375 -18.578125 23 -19.984375 23 -21.734375 C 23 -23.472656 22.375 -24.863281 21.125 -25.90625 C 19.875 -26.957031 18.234375 -27.484375 16.203125 -27.484375 Z M 16.203125 -27.484375 "/></g></g></g><g fill="#000000" fill-opacity="1"><g transform="translate(84.989504, 44.348863)"><g><path d="M 33.3125 -15.234375 C 33.3125 -13.054688 32.90625 -11.003906 32.09375 -9.078125 C 31.28125 -7.148438 30.171875 -5.476562 28.765625 -4.0625 C 27.359375 -2.65625 25.695312 -1.546875 23.78125 -0.734375 C 21.863281 0.078125 19.816406 0.484375 17.640625 0.484375 C 15.460938 0.484375 13.40625 0.078125 11.46875 -0.734375 C 9.539062 -1.546875 7.875 -2.65625 6.46875 -4.0625 C 5.0625 -5.476562 3.953125 -7.148438 3.140625 -9.078125 C 2.328125 -11.003906 1.921875 -13.054688 1.921875 -15.234375 C 1.921875 -17.410156 2.328125 -19.460938 3.140625 -21.390625 C 3.953125 -23.328125 5.0625 -25 6.46875 -26.40625 C 7.875 -27.8125 9.539062 -28.921875 11.46875 -29.734375 C 13.40625 -30.554688 15.460938 -30.96875 17.640625 -30.96875 C 19.816406 -30.96875 21.863281 -30.554688 23.78125 -29.734375 C 25.695312 -28.921875 27.359375 -27.8125 28.765625 -26.40625 C 30.171875 -25 31.28125 -23.328125 32.09375 -21.390625 C 32.90625 -19.460938 33.3125 -17.410156 33.3125 -15.234375 Z M 29.921875 -15.234375 C 29.921875 -17.003906 29.597656 -18.664062 28.953125 -20.21875 C 28.316406 -21.78125 27.453125 -23.117188 26.359375 -24.234375 C 25.273438 -25.347656 23.976562 -26.234375 22.46875 -26.890625 C 20.957031 -27.546875 19.347656 -27.875 17.640625 -27.875 C 15.898438 -27.875 14.273438 -27.546875 12.765625 -26.890625 C 11.253906 -26.234375 9.953125 -25.347656 8.859375 -24.234375 C 7.773438 -23.117188 6.910156 -21.78125 6.265625 -20.21875 C 5.628906 -18.664062 5.3125 -17.003906 5.3125 -15.234375 C 5.3125 -13.460938 5.628906 -11.804688 6.265625 -10.265625 C 6.910156 -8.734375 7.773438 -7.398438 8.859375 -6.265625 C 9.953125 -5.140625 11.253906 -4.25 12.765625 -3.59375 C 14.273438 -2.9375 15.898438 -2.609375 17.640625 -2.609375 C 19.347656 -2.609375 20.957031 -2.9375 22.46875 -3.59375 C 23.976562 -4.25 25.273438 -5.140625 26.359375 -6.265625 C 27.453125 -7.398438 28.316406 -8.734375 28.953125 -10.265625 C 29.597656 -11.804688 29.921875 -13.460938 29.921875 -15.234375 Z M 29.921875 -15.234375 "/></g></g></g><g fill="#000000" fill-opacity="1"><g transform="translate(119.29731, 44.348863)"><g><path d="M 3.359375 0 L 3.359375 -30.484375 L 16.421875 -30.484375 C 19.378906 -30.484375 21.769531 -29.675781 23.59375 -28.0625 C 25.425781 -26.457031 26.34375 -24.347656 26.34375 -21.734375 C 26.34375 -19.722656 25.753906 -17.992188 24.578125 -16.546875 C 23.398438 -15.097656 21.828125 -14.097656 19.859375 -13.546875 L 26.6875 0 L 23 0 L 16.453125 -13.109375 L 6.703125 -13.109375 L 6.703125 0 Z M 16.203125 -27.484375 L 6.703125 -27.484375 L 6.703125 -15.9375 L 16.203125 -15.9375 C 18.234375 -15.9375 19.875 -16.460938 21.125 -17.515625 C 22.375 -18.578125 23 -19.984375 23 -21.734375 C 23 -23.472656 22.375 -24.863281 21.125 -25.90625 C 19.875 -26.957031 18.234375 -27.484375 16.203125 -27.484375 Z M 16.203125 -27.484375 "/></g></g></g><g fill="#000000" fill-opacity="1"><g transform="translate(146.900332, 44.348863)"><g><path d="M 0.171875 0 L 12.84375 -30.484375 L 16.890625 -30.484375 L 29.390625 0 L 25.734375 0 L 21.90625 -9.578125 L 7.53125 -9.578125 L 3.65625 0 Z M 8.703125 -12.453125 L 20.734375 -12.453125 L 14.765625 -27.34375 Z M 8.703125 -12.453125 "/></g></g></g><g fill="#000000" fill-opacity="1"><g transform="translate(175.548151, 44.348863)"><g/></g></g><g fill="#000000" fill-opacity="1"><g transform="translate(183.99413, 44.348863)"><g><path d="M 33.3125 -15.234375 C 33.3125 -13.054688 32.90625 -11.003906 32.09375 -9.078125 C 31.28125 -7.148438 30.171875 -5.476562 28.765625 -4.0625 C 27.359375 -2.65625 25.695312 -1.546875 23.78125 -0.734375 C 21.863281 0.078125 19.816406 0.484375 17.640625 0.484375 C 15.460938 0.484375 13.40625 0.078125 11.46875 -0.734375 C 9.539062 -1.546875 7.875 -2.65625 6.46875 -4.0625 C 5.0625 -5.476562 3.953125 -7.148438 3.140625 -9.078125 C 2.328125 -11.003906 1.921875 -13.054688 1.921875 -15.234375 C 1.921875 -17.410156 2.328125 -19.460938 3.140625 -21.390625 C 3.953125 -23.328125 5.0625 -25 6.46875 -26.40625 C 7.875 -27.8125 9.539062 -28.921875 11.46875 -29.734375 C 13.40625 -30.554688 15.460938 -30.96875 17.640625 -30.96875 C 19.816406 -30.96875 21.863281 -30.554688 23.78125 -29.734375 C 25.695312 -28.921875 27.359375 -27.8125 28.765625 -26.40625 C 30.171875 -25 31.28125 -23.328125 32.09375 -21.390625 C 32.90625 -19.460938 33.3125 -17.410156 33.3125 -15.234375 Z M 29.921875 -15.234375 C 29.921875 -17.003906 29.597656 -18.664062 28.953125 -20.21875 C 28.316406 -21.78125 27.453125 -23.117188 26.359375 -24.234375 C 25.273438 -25.347656 23.976562 -26.234375 22.46875 -26.890625 C 20.957031 -27.546875 19.347656 -27.875 17.640625 -27.875 C 15.898438 -27.875 14.273438 -27.546875 12.765625 -26.890625 C 11.253906 -26.234375 9.953125 -25.347656 8.859375 -24.234375 C 7.773438 -23.117188 6.910156 -21.78125 6.265625 -20.21875 C 5.628906 -18.664062 5.3125 -17.003906 5.3125 -15.234375 C 5.3125 -13.460938 5.628906 -11.804688 6.265625 -10.265625 C 6.910156 -8.734375 7.773438 -7.398438 8.859375 -6.265625 C 9.953125 -5.140625 11.253906 -4.25 12.765625 -3.59375 C 14.273438 -2.9375 15.898438 -2.609375 17.640625 -2.609375 C 19.347656 -2.609375 20.957031 -2.9375 22.46875 -3.59375 C 23.976562 -4.25 25.273438 -5.140625 26.359375 -6.265625 C 27.453125 -7.398438 28.316406 -8.734375 28.953125 -10.265625 C 29.597656 -11.804688 29.921875 -13.460938 29.921875 -15.234375 Z M 29.921875 -15.234375 "/></g></g></g><g fill="#000000" fill-opacity="1"><g transform="translate(218.301936, 44.348863)"><g><path d="M 0.484375 -5.21875 L 2.703125 -7.53125 C 4.265625 -5.875 5.9375 -4.617188 7.71875 -3.765625 C 9.507812 -2.910156 11.394531 -2.484375 13.375 -2.484375 C 15.75 -2.484375 17.707031 -3.046875 19.25 -4.171875 C 20.789062 -5.304688 21.5625 -6.742188 21.5625 -8.484375 C 21.5625 -10.054688 21.015625 -11.265625 19.921875 -12.109375 C 18.835938 -12.953125 17.046875 -13.578125 14.546875 -13.984375 L 10.140625 -14.671875 C 7.210938 -15.140625 5.050781 -16.003906 3.65625 -17.265625 C 2.257812 -18.523438 1.5625 -20.234375 1.5625 -22.390625 C 1.5625 -24.910156 2.546875 -26.953125 4.515625 -28.515625 C 6.492188 -30.085938 9.082031 -30.875 12.28125 -30.875 C 14.394531 -30.875 16.5 -30.523438 18.59375 -29.828125 C 20.6875 -29.128906 22.585938 -28.128906 24.296875 -26.828125 L 22.390625 -24.21875 C 20.734375 -25.457031 19.046875 -26.394531 17.328125 -27.03125 C 15.617188 -27.675781 13.894531 -28 12.15625 -28 C 9.976562 -28 8.210938 -27.5 6.859375 -26.5 C 5.503906 -25.5 4.828125 -24.210938 4.828125 -22.640625 C 4.828125 -21.222656 5.304688 -20.132812 6.265625 -19.375 C 7.222656 -18.625 8.804688 -18.070312 11.015625 -17.71875 L 15.375 -17.03125 C 18.6875 -16.476562 21.101562 -15.53125 22.625 -14.1875 C 24.144531 -12.851562 24.90625 -11.015625 24.90625 -8.671875 C 24.90625 -7.328125 24.617188 -6.097656 24.046875 -4.984375 C 23.484375 -3.867188 22.6875 -2.910156 21.65625 -2.109375 C 20.632812 -1.316406 19.40625 -0.691406 17.96875 -0.234375 C 16.53125 0.210938 14.953125 0.4375 13.234375 0.4375 C 10.828125 0.4375 8.515625 -0.046875 6.296875 -1.015625 C 4.078125 -1.992188 2.140625 -3.394531 0.484375 -5.21875 Z M 0.484375 -5.21875 "/></g></g></g></g></g></svg>