<svg xmlns="http://www.w3.org/2000/svg" xmlns:xlink="http://www.w3.org/1999/xlink" width="500" zoomAndPan="magnify" viewBox="0 0 375 374.999991" height="500" preserveAspectRatio="xMidYMid meet" version="1.0"><defs><clipPath id="084c06cf69"><path d="M 90.394531 98 L 284.601562 98 L 284.601562 269.324219 L 90.394531 269.324219 Z M 90.394531 98 " clip-rule="nonzero"/></clipPath><clipPath id="37aeb35ac3"><path d="M 191.972656 101.246094 L 283.792969 261.511719 C 284.714844 263.128906 284.710938 265.113281 283.777344 266.722656 C 282.847656 268.332031 281.125 269.324219 279.265625 269.324219 L 95.726562 269.320312 C 93.867188 269.320312 92.148438 268.332031 91.214844 266.722656 C 90.28125 265.113281 90.277344 263.128906 91.203125 261.511719 L 183.023438 101.246094 C 183.941406 99.640625 185.648438 98.652344 187.496094 98.652344 C 189.34375 98.652344 191.050781 99.640625 191.972656 101.246094 Z M 191.972656 101.246094 " clip-rule="nonzero"/></clipPath><clipPath id="24f97332e9"><path d="M 148.609375 170.964844 L 226.386719 170.964844 L 226.386719 248.742188 L 148.609375 248.742188 Z M 148.609375 170.964844 " clip-rule="nonzero"/></clipPath><clipPath id="4e265559f6"><path d="M 187.5 170.964844 C 166.023438 170.964844 148.609375 188.375 148.609375 209.855469 C 148.609375 231.332031 166.023438 248.742188 187.5 248.742188 C 208.976562 248.742188 226.386719 231.332031 226.386719 209.855469 C 226.386719 188.375 208.976562 170.964844 187.5 170.964844 Z M 187.5 170.964844 " clip-rule="nonzero"/></clipPath></defs><g clip-path="url(#084c06cf69)"><g clip-path="url(#37aeb35ac3)"><path stroke-linecap="butt" transform="matrix(-0.75, 0, 0, -0.75, 288.265474, 269.322287)" fill="none" stroke-linejoin="miter" d="M 128.390432 224.101606 L 5.96334 10.414092 C 4.734173 8.257842 4.739382 5.612008 5.984173 3.466175 C 7.223757 1.320341 9.520632 -0.00257551 11.999799 -0.00257551 L 256.718565 -0.00257551 C 259.197732 -0.00257551 261.489399 1.320341 262.73419 3.466175 C 263.978982 5.612008 263.98419 8.257842 262.749815 10.414092 L 140.322724 224.101606 C 139.098766 226.242231 136.822724 227.559939 134.359182 227.559939 C 131.89564 227.559939 129.619598 226.242231 128.390432 224.101606 Z M 128.390432 224.101606 " stroke="#000000" stroke-width="20" stroke-opacity="1" stroke-miterlimit="4"/></g></g><g clip-path="url(#24f97332e9)"><g clip-path="url(#4e265559f6)"><path stroke-linecap="butt" transform="matrix(0.75, 0, 0, 0.75, 148.611103, 170.965594)" fill="none" stroke-linejoin="miter" d="M 51.851866 -0.00100083 C 23.216448 -0.00100083 -0.00230366 23.212542 -0.00230366 51.853169 C -0.00230366 80.488588 23.216448 103.702131 51.851866 103.702131 C 80.487285 103.702131 103.700828 80.488588 103.700828 51.853169 C 103.700828 23.212542 80.487285 -0.00100083 51.851866 -0.00100083 Z M 51.851866 -0.00100083 " stroke="#000000" stroke-width="20" stroke-opacity="1" stroke-miterlimit="4"/></g></g></svg>